<svg xmlns="http://www.w3.org/2000/svg" viewBox="0 0 512 512" role="img" aria-labelledby="title desc">
  <title id="title">Picon Counter</title>
  <desc id="desc">Icône sombre avec carnet, verre abstrait et jauge de suivi.</desc>
  <defs>
    <linearGradient id="bg" x1="0" y1="0" x2="1" y2="1">
      <stop offset="0" stop-color="#120b08"/>
      <stop offset="0.58" stop-color="#241407"/>
      <stop offset="1" stop-color="#381a08"/>
    </linearGradient>
    <linearGradient id="amber" x1="0" y1="0" x2="0" y2="1">
      <stop offset="0" stop-color="#ffe59a"/>
      <stop offset="0.5" stop-color="#f6a640"/>
      <stop offset="1" stop-color="#c97116"/>
    </linearGradient>
    <linearGradient id="mint" x1="0" y1="0" x2="1" y2="1">
      <stop offset="0" stop-color="#9cf7d1"/>
      <stop offset="1" stop-color="#75d59d"/>
    </linearGradient>
    <filter id="soft" x="-30%" y="-30%" width="160%" height="160%">
      <feGaussianBlur stdDeviation="16"/>
    </filter>
  </defs>
  <rect width="512" height="512" rx="104" fill="url(#bg)"/>
  <circle cx="118" cy="102" r="54" fill="#75d59d" opacity="0.34" filter="url(#soft)"/>
  <circle cx="402" cy="134" r="62" fill="#f6ce72" opacity="0.28" filter="url(#soft)"/>
  <circle cx="392" cy="398" r="76" fill="#8fd8c8" opacity="0.16" filter="url(#soft)"/>
  <path d="M116 118h208c34 0 62 28 62 62v198c0 34-28 62-62 62H116z" fill="#fff8e7" opacity="0.08"/>
  <path d="M122 126h204c28 0 50 22 50 50v204c0 28-22 50-50 50H122z" fill="#fff8e7" opacity="0.1" stroke="#f6ce72" stroke-opacity="0.22" stroke-width="3"/>
  <path d="M156 168h164" stroke="#fff8e7" stroke-opacity="0.35" stroke-width="12" stroke-linecap="round"/>
  <path d="M156 218h128" stroke="#fff8e7" stroke-opacity="0.2" stroke-width="10" stroke-linecap="round"/>
  <path d="M156 258h108" stroke="#fff8e7" stroke-opacity="0.16" stroke-width="10" stroke-linecap="round"/>
  <g transform="translate(230 158)">
    <path d="M48 0h110l-18 196H66z" fill="#fff8e7" opacity="0.18"/>
    <path d="M64 84h76l-10 100H74z" fill="url(#amber)"/>
    <path d="M65 80c18 12 31-10 50 3 17 11 25-3 34-1l-3 30H68z" fill="#ffe59a" opacity="0.96"/>
    <path d="M58 0h92" stroke="#fff8e7" stroke-width="18" stroke-linecap="round" opacity="0.84"/>
    <path d="M80 28v134" stroke="#fff8e7" stroke-width="12" stroke-linecap="round" opacity="0.42"/>
  </g>
  <g transform="translate(126 320)">
    <circle cx="40" cy="40" r="38" fill="none" stroke="#fff8e7" stroke-opacity="0.16" stroke-width="12"/>
    <path d="M40 2a38 38 0 0 1 33 57" fill="none" stroke="url(#mint)" stroke-width="12" stroke-linecap="round"/>
    <path d="M26 42l10 10 22-28" fill="none" stroke="#9cf7d1" stroke-width="8" stroke-linecap="round" stroke-linejoin="round"/>
  </g>
  <text x="184" y="111" fill="#fff8e7" font-family="Trebuchet MS, Arial, sans-serif" font-size="54" font-weight="900" letter-spacing="-3">PC</text>
</svg>