<svg xmlns="http://www.w3.org/2000/svg" viewBox="0 0 512 512" role="img" aria-labelledby="title desc">
  <title id="title">Picon Counter</title>
  <desc id="desc">Icône Art nouveau sombre avec carnet, arche, verre abstrait et jauge de suivi.</desc>
  <defs>
    <linearGradient id="bg" x1="0" y1="0" x2="1" y2="1">
      <stop offset="0" stop-color="#0d0905"/>
      <stop offset="0.56" stop-color="#211407"/>
      <stop offset="1" stop-color="#341908"/>
    </linearGradient>
    <linearGradient id="glass" x1="0" y1="0" x2="0" y2="1">
      <stop offset="0" stop-color="#fff8e7" stop-opacity="0.4"/>
      <stop offset="1" stop-color="#fff8e7" stop-opacity="0.12"/>
    </linearGradient>
    <linearGradient id="amber" x1="0" y1="0" x2="0" y2="1">
      <stop offset="0" stop-color="#ffe59a"/>
      <stop offset="0.52" stop-color="#f6a640"/>
      <stop offset="1" stop-color="#c97116"/>
    </linearGradient>
    <linearGradient id="mint" x1="0" y1="0" x2="1" y2="1">
      <stop offset="0" stop-color="#b9ffe3"/>
      <stop offset="1" stop-color="#75d59d"/>
    </linearGradient>
    <filter id="soft" x="-30%" y="-30%" width="160%" height="160%"><feGaussianBlur stdDeviation="16"/></filter>
  </defs>
  <rect width="512" height="512" rx="104" fill="url(#bg)"/>
  <circle cx="116" cy="104" r="56" fill="#75d59d" opacity="0.26" filter="url(#soft)"/>
  <circle cx="400" cy="132" r="68" fill="#f6ce72" opacity="0.24" filter="url(#soft)"/>
  <path d="M82 438c20-128 94-214 174-214s154 86 174 214" fill="none" stroke="#f6ce72" stroke-opacity="0.18" stroke-width="8" stroke-linecap="round"/>
  <path d="M122 432c24-96 78-152 134-152s110 56 134 152" fill="none" stroke="#75d59d" stroke-opacity="0.16" stroke-width="5" stroke-linecap="round"/>
  <path d="M96 122c76 16 126 62 150 138M416 122c-76 16-126 62-150 138" fill="none" stroke="#fff8e7" stroke-opacity="0.12" stroke-width="5" stroke-linecap="round"/>
  <path d="M132 130h178c44 0 80 36 80 80v196c0 28-22 50-50 50H132z" fill="#fff8e7" opacity="0.075" stroke="#f6ce72" stroke-opacity="0.24" stroke-width="3"/>
  <path d="M164 178h140" stroke="#fff8e7" stroke-opacity="0.32" stroke-width="12" stroke-linecap="round"/>
  <path d="M164 226h106" stroke="#fff8e7" stroke-opacity="0.19" stroke-width="10" stroke-linecap="round"/>
  <path d="M164 264h92" stroke="#fff8e7" stroke-opacity="0.14" stroke-width="10" stroke-linecap="round"/>
  <g transform="translate(240 168)">
    <path d="M42 0h112l-18 190H60Z" fill="url(#glass)" stroke="#fff8e7" stroke-opacity="0.36" stroke-width="3"/>
    <path d="M58 82h78l-10 96H68Z" fill="url(#amber)"/>
    <path d="M60 78c19 12 32-10 52 3 16 11 25-3 34-1l-4 30H64Z" fill="#ffe59a" opacity="0.96"/>
    <path d="M52 0h92" stroke="#fff8e7" stroke-width="18" stroke-linecap="round" opacity="0.86"/>
    <path d="M76 28v132" stroke="#fff8e7" stroke-width="12" stroke-linecap="round" opacity="0.42"/>
  </g>
  <g transform="translate(134 330)">
    <circle cx="40" cy="40" r="38" fill="none" stroke="#fff8e7" stroke-opacity="0.16" stroke-width="12"/>
    <path d="M40 2a38 38 0 0 1 33 57" fill="none" stroke="url(#mint)" stroke-width="12" stroke-linecap="round"/>
    <path d="M26 42l10 10 22-28" fill="none" stroke="#b9ffe3" stroke-width="8" stroke-linecap="round" stroke-linejoin="round"/>
  </g>
  <text x="176" y="116" fill="#fff8e7" font-family="Trebuchet MS, Arial, sans-serif" font-size="52" font-weight="900" letter-spacing="-3">PC</text>
</svg>