<svg xmlns="http://www.w3.org/2000/svg" viewBox="0 0 512 512" role="img" aria-labelledby="title desc">
  <title id="title">Pictogrammes de contexte</title>
  <desc id="desc">Planche de huit pictogrammes sobres pour tags de contexte.</desc>
  <defs>
    <style>
      .tile{fill:#20150f;stroke:#f6ce72;stroke-opacity:.22;stroke-width:2}.line{fill:none;stroke:#fff8e7;stroke-width:7;stroke-linecap:round;stroke-linejoin:round}.accent{fill:#75d59d}.warn{fill:#f6ce72}.soft{fill:#e1c18d}.hot{fill:#d06a50}
    </style>
  </defs>
  <rect width="512" height="512" rx="44" fill="#120b08"/>
  <g transform="translate(32 32)">
    <g><rect class="tile" width="92" height="92" rx="24"/><path class="line" d="M22 56h48M26 40h40"/><circle class="warn" cx="34" cy="27" r="8"/><circle class="accent" cx="58" cy="27" r="8"/></g>
    <g transform="translate(118)"><rect class="tile" width="92" height="92" rx="24"/><path class="line" d="M28 68c12-22 24-22 36 0M32 28h28M46 28v42"/><circle class="soft" cx="64" cy="35" r="9"/></g>
    <g transform="translate(236)"><rect class="tile" width="92" height="92" rx="24"/><path class="line" d="M46 22v18M30 34l12 12M62 34 50 46M28 64h36"/><circle class="hot" cx="46" cy="62" r="10"/></g>
    <g transform="translate(354)"><rect class="tile" width="92" height="92" rx="24"/><path class="line" d="M28 58c12 14 32 14 44 0M28 38c12-14 32-14 44 0"/><circle class="warn" cx="34" cy="48" r="6"/><circle class="accent" cx="58" cy="48" r="6"/></g>
    <g transform="translate(0 118)"><rect class="tile" width="92" height="92" rx="24"/><path class="line" d="M28 62c8-22 28-22 36 0M28 62h36M46 24v18"/><circle class="soft" cx="46" cy="24" r="10"/></g>
    <g transform="translate(118 118)"><rect class="tile" width="92" height="92" rx="24"/><path class="line" d="M28 64h36M32 44h28M46 24v40"/><path class="hot" d="M68 30c7 10 4 22-5 27 1-9-5-14-11-20 9 0 13-3 16-7Z"/></g>
    <g transform="translate(236 118)"><rect class="tile" width="92" height="92" rx="24"/><path class="line" d="M24 48h44M34 34l-10 14 10 14M58 34l10 14-10 14"/><circle class="accent" cx="46" cy="48" r="7"/></g>
    <g transform="translate(354 118)"><rect class="tile" width="92" height="92" rx="24"/><path class="line" d="M28 56c14 16 36 16 50-4M36 30c10-8 22-8 32 0M46 44h.1"/><circle class="warn" cx="46" cy="44" r="6"/></g>
  </g>
</svg>